<svg width="19" height="33" viewBox="0 0 19 33" fill="none" xmlns="http://www.w3.org/2000/svg">
<path d="M18.128 21.674C18.128 22.9073 17.8197 24.0667 17.203 25.152C16.611 26.2373 15.723 27.15 14.539 27.89C13.3797 28.63 11.9983 29.074 10.395 29.222V32.219H7.99V29.222C5.67133 29 3.79667 28.2723 2.366 27.039C0.935333 25.8057 0.22 24.1777 0.22 22.155H4.734C4.808 23.117 5.11633 23.9187 5.659 24.56C6.20167 25.1767 6.97867 25.5713 7.99 25.744V17.604C6.33733 17.1847 4.993 16.7653 3.957 16.346C2.921 15.902 2.033 15.2113 1.293 14.274C0.577667 13.3367 0.22 12.054 0.22 10.426C0.22 8.37867 0.935333 6.689 2.366 5.357C3.79667 4.00033 5.67133 3.211 7.99 2.989V-0.00800145H10.395V2.989C12.5657 3.18633 14.3047 3.877 15.612 5.061C16.944 6.22033 17.6963 7.82367 17.869 9.871H13.355C13.281 9.10633 12.985 8.428 12.467 7.836C11.949 7.21933 11.2583 6.8 10.395 6.578V14.57C12.0477 14.9647 13.392 15.384 14.428 15.828C15.464 16.2473 16.3397 16.9257 17.055 17.863C17.7703 18.7757 18.128 20.046 18.128 21.674ZM4.512 10.204C4.512 11.2153 4.808 12.0047 5.4 12.572C6.01667 13.1393 6.88 13.5957 7.99 13.941V6.467C6.92933 6.59033 6.07833 6.97267 5.437 7.614C4.82033 8.25533 4.512 9.11867 4.512 10.204ZM10.395 25.744C11.4803 25.5713 12.3313 25.1397 12.948 24.449C13.5647 23.7337 13.873 22.8827 13.873 21.896C13.873 20.9093 13.5647 20.1447 12.948 19.602C12.356 19.0347 11.505 18.5783 10.395 18.233V25.744Z" fill="#E31D3B"/>
</svg>
