<svg width="205" height="95" viewBox="0 0 205 95" fill="none" xmlns="http://www.w3.org/2000/svg">
<path d="M47.5 71.25C41.2033 71.243 35.1664 68.7385 30.7139 64.2861C26.2615 59.8336 23.757 53.7967 23.75 47.5C23.75 34.4058 34.4058 23.75 47.5 23.75C60.5942 23.75 71.25 34.4058 71.25 47.5C71.25 60.5942 60.5942 71.25 47.5 71.25Z" fill="url(#paint0_linear_254_16)"/>
<path fill-rule="evenodd" clip-rule="evenodd" d="M47.5 0C48.1999 0 48.8711 0.278026 49.366 0.772913C49.8609 1.2678 50.1389 1.93901 50.1389 2.63889V13.1944C50.1389 13.8943 49.8609 14.5655 49.366 15.0604C48.8711 15.5553 48.1999 15.8333 47.5 15.8333C46.8001 15.8333 46.1289 15.5553 45.634 15.0604C45.1391 14.5655 44.8611 13.8943 44.8611 13.1944V2.63889C44.8611 1.93901 45.1391 1.2678 45.634 0.772913C46.1289 0.278026 46.8001 0 47.5 0ZM79.1667 47.5C79.1667 46.8001 79.4447 46.1289 79.9396 45.634C80.4345 45.1391 81.1057 44.8611 81.8056 44.8611H92.3611C93.061 44.8611 93.7322 45.1391 94.2271 45.634C94.722 46.1289 95 46.8001 95 47.5C95 48.1999 94.722 48.8711 94.2271 49.366C93.7322 49.8609 93.061 50.1389 92.3611 50.1389H81.8056C81.1057 50.1389 80.4345 49.8609 79.9396 49.366C79.4447 48.8711 79.1667 48.1999 79.1667 47.5ZM0 47.5C0 46.8001 0.278026 46.1289 0.772913 45.634C1.2678 45.1391 1.93901 44.8611 2.63889 44.8611H13.1944C13.8943 44.8611 14.5655 45.1391 15.0604 45.634C15.5553 46.1289 15.8333 46.8001 15.8333 47.5C15.8333 48.1999 15.5553 48.8711 15.0604 49.366C14.5655 49.8609 13.8943 50.1389 13.1944 50.1389H2.63889C1.93901 50.1389 1.2678 49.8609 0.772913 49.366C0.278026 48.8711 0 48.1999 0 47.5ZM47.5 79.1667C48.1999 79.1667 48.8711 79.4447 49.366 79.9396C49.8609 80.4345 50.1389 81.1057 50.1389 81.8056V92.3611C50.1389 93.061 49.8609 93.7322 49.366 94.2271C48.8711 94.722 48.1999 95 47.5 95C46.8001 95 46.1289 94.722 45.634 94.2271C45.1391 93.7322 44.8611 93.061 44.8611 92.3611V81.8056C44.8611 81.1057 45.1391 80.4345 45.634 79.9396C46.1289 79.4447 46.8001 79.1667 47.5 79.1667ZM81.035 13.965C81.2807 14.2101 81.4757 14.5013 81.6088 14.8219C81.7418 15.1425 81.8103 15.4862 81.8103 15.8333C81.8103 16.1804 81.7418 16.5241 81.6088 16.8447C81.4757 17.1653 81.2807 17.4565 81.035 17.7017L73.1183 25.6183C72.6228 26.1138 71.9508 26.3922 71.25 26.3922C70.5492 26.3922 69.8772 26.1138 69.3817 25.6183C68.8862 25.1228 68.6078 24.4508 68.6078 23.75C68.6078 23.0492 68.8862 22.3772 69.3817 21.8817L77.2983 13.965C77.5435 13.7192 77.8347 13.5243 78.1553 13.3912C78.4759 13.2582 78.8196 13.1897 79.1667 13.1897C79.5138 13.1897 79.8575 13.2582 80.1781 13.3912C80.4987 13.5243 80.7899 13.7192 81.035 13.965ZM25.6183 69.3817C25.8641 69.6268 26.0591 69.918 26.1921 70.2386C26.3251 70.5592 26.3936 70.9029 26.3936 71.25C26.3936 71.5971 26.3251 71.9408 26.1921 72.2614C26.0591 72.582 25.8641 72.8732 25.6183 73.1183L17.7017 81.035C17.2062 81.5305 16.5341 81.8089 15.8333 81.8089C15.1326 81.8089 14.4605 81.5305 13.965 81.035C13.4695 80.5395 13.1911 79.8674 13.1911 79.1667C13.1911 78.4659 13.4695 77.7938 13.965 77.2983L21.8817 69.3817C22.1268 69.1359 22.418 68.9409 22.7386 68.8079C23.0592 68.6749 23.4029 68.6064 23.75 68.6064C24.0971 68.6064 24.4408 68.6749 24.7614 68.8079C25.082 68.9409 25.3732 69.1359 25.6183 69.3817ZM13.965 13.965C14.2101 13.7192 14.5013 13.5243 14.8219 13.3912C15.1425 13.2582 15.4862 13.1897 15.8333 13.1897C16.1804 13.1897 16.5241 13.2582 16.8447 13.3912C17.1653 13.5243 17.4565 13.7192 17.7017 13.965L25.6183 21.8817C26.1138 22.3772 26.3922 23.0492 26.3922 23.75C26.3922 24.4508 26.1138 25.1228 25.6183 25.6183C25.1228 26.1138 24.4508 26.3922 23.75 26.3922C23.0492 26.3922 22.3772 26.1138 21.8817 25.6183L13.965 17.7017C13.7192 17.4565 13.5243 17.1653 13.3912 16.8447C13.2582 16.5241 13.1897 16.1804 13.1897 15.8333C13.1897 15.4862 13.2582 15.1425 13.3912 14.8219C13.5243 14.5013 13.7192 14.2101 13.965 13.965ZM69.3817 69.3817C69.6268 69.1359 69.918 68.9409 70.2386 68.8079C70.5592 68.6749 70.9029 68.6064 71.25 68.6064C71.5971 68.6064 71.9408 68.6749 72.2614 68.8079C72.582 68.9409 72.8732 69.1359 73.1183 69.3817L81.035 77.2983C81.2803 77.5437 81.475 77.835 81.6078 78.1555C81.7405 78.4761 81.8089 78.8197 81.8089 79.1667C81.8089 79.5136 81.7405 79.8572 81.6078 80.1778C81.475 80.4984 81.2803 80.7896 81.035 81.035C80.7896 81.2803 80.4984 81.475 80.1778 81.6078C79.8572 81.7405 79.5136 81.8089 79.1667 81.8089C78.8197 81.8089 78.4761 81.7405 78.1555 81.6078C77.835 81.475 77.5437 81.2803 77.2983 81.035L69.3817 73.1183C69.1359 72.8732 68.9409 72.582 68.8079 72.2614C68.6749 71.9408 68.6064 71.5971 68.6064 71.25C68.6064 70.9029 68.6749 70.5592 68.8079 70.2386C68.9409 69.918 69.1359 69.6268 69.3817 69.3817Z" fill="url(#paint1_linear_254_16)"/>
<path d="M51.552 61.266C49.7787 61.266 48.1827 60.962 46.764 60.354C45.3453 59.7207 44.2307 58.834 43.42 57.694C42.6093 56.554 42.204 55.224 42.204 53.704H46.84C46.9413 54.844 47.3847 55.7813 48.17 56.516C48.9807 57.2507 50.108 57.618 51.552 57.618C53.0467 57.618 54.212 57.2633 55.048 56.554C55.884 55.8193 56.302 54.882 56.302 53.742C56.302 52.8553 56.036 52.1333 55.504 51.576C54.9973 51.0187 54.3513 50.588 53.566 50.284C52.806 49.98 51.742 49.6507 50.374 49.296C48.6513 48.84 47.2453 48.384 46.156 47.928C45.092 47.4467 44.18 46.712 43.42 45.724C42.66 44.736 42.28 43.4187 42.28 41.772C42.28 40.252 42.66 38.922 43.42 37.782C44.18 36.642 45.244 35.768 46.612 35.16C47.98 34.552 49.5633 34.248 51.362 34.248C53.9207 34.248 56.0107 34.894 57.632 36.186C59.2787 37.4527 60.1907 39.2007 60.368 41.43H55.58C55.504 40.4673 55.048 39.644 54.212 38.96C53.376 38.276 52.274 37.934 50.906 37.934C49.6647 37.934 48.6513 38.2507 47.866 38.884C47.0807 39.5173 46.688 40.4293 46.688 41.62C46.688 42.4307 46.9287 43.102 47.41 43.634C47.9167 44.1407 48.55 44.546 49.31 44.85C50.07 45.154 51.1087 45.4833 52.426 45.838C54.174 46.3193 55.5927 46.8007 56.682 47.282C57.7967 47.7633 58.734 48.5107 59.494 49.524C60.2793 50.512 60.672 51.842 60.672 53.514C60.672 54.8567 60.3047 56.1233 59.57 57.314C58.8607 58.5047 57.8093 59.4673 56.416 60.202C55.048 60.9113 53.4267 61.266 51.552 61.266ZM84.7456 40.062V61H80.4136V58.53C79.7296 59.3913 78.8303 60.0753 77.7156 60.582C76.6263 61.0633 75.4609 61.304 74.2196 61.304C72.5729 61.304 71.0909 60.962 69.7736 60.278C68.4816 59.594 67.4556 58.5807 66.6956 57.238C65.9609 55.8953 65.5936 54.274 65.5936 52.374V40.062H69.8876V51.728C69.8876 53.6027 70.3563 55.0467 71.2936 56.06C72.2309 57.048 73.5103 57.542 75.1316 57.542C76.7529 57.542 78.0323 57.048 78.9696 56.06C79.9323 55.0467 80.4136 53.6027 80.4136 51.728V40.062H84.7456ZM115.807 39.72C117.454 39.72 118.923 40.062 120.215 40.746C121.533 41.43 122.559 42.4433 123.293 43.786C124.053 45.1287 124.433 46.75 124.433 48.65V61H120.139V49.296C120.139 47.4213 119.671 45.99 118.733 45.002C117.796 43.9887 116.517 43.482 114.895 43.482C113.274 43.482 111.982 43.9887 111.019 45.002C110.082 45.99 109.613 47.4213 109.613 49.296V61H105.319V49.296C105.319 47.4213 104.851 45.99 103.913 45.002C102.976 43.9887 101.697 43.482 100.075 43.482C98.454 43.482 97.162 43.9887 96.1993 45.002C95.262 45.99 94.7933 47.4213 94.7933 49.296V61H90.4613V40.062H94.7933V42.456C95.5027 41.5947 96.402 40.9233 97.4913 40.442C98.5807 39.9607 99.746 39.72 100.987 39.72C102.659 39.72 104.154 40.0747 105.471 40.784C106.789 41.4933 107.802 42.5193 108.511 43.862C109.145 42.5953 110.133 41.5947 111.475 40.86C112.818 40.1 114.262 39.72 115.807 39.72ZM155.292 39.72C156.938 39.72 158.408 40.062 159.7 40.746C161.017 41.43 162.043 42.4433 162.778 43.786C163.538 45.1287 163.918 46.75 163.918 48.65V61H159.624V49.296C159.624 47.4213 159.155 45.99 158.218 45.002C157.28 43.9887 156.001 43.482 154.38 43.482C152.758 43.482 151.466 43.9887 150.504 45.002C149.566 45.99 149.098 47.4213 149.098 49.296V61H144.804V49.296C144.804 47.4213 144.335 45.99 143.398 45.002C142.46 43.9887 141.181 43.482 139.56 43.482C137.938 43.482 136.646 43.9887 135.684 45.002C134.746 45.99 134.278 47.4213 134.278 49.296V61H129.946V40.062H134.278V42.456C134.987 41.5947 135.886 40.9233 136.976 40.442C138.065 39.9607 139.23 39.72 140.472 39.72C142.144 39.72 143.638 40.0747 144.956 40.784C146.273 41.4933 147.286 42.5193 147.996 43.862C148.629 42.5953 149.617 41.5947 150.96 40.86C152.302 40.1 153.746 39.72 155.292 39.72ZM188.62 50.018C188.62 50.8033 188.569 51.5127 188.468 52.146H172.47C172.597 53.818 173.217 55.1607 174.332 56.174C175.447 57.1873 176.815 57.694 178.436 57.694C180.767 57.694 182.413 56.7187 183.376 54.768H188.05C187.417 56.6933 186.264 58.2767 184.592 59.518C182.945 60.734 180.893 61.342 178.436 61.342C176.435 61.342 174.636 60.8987 173.04 60.012C171.469 59.1 170.228 57.8333 169.316 56.212C168.429 54.5653 167.986 52.6653 167.986 50.512C167.986 48.3587 168.417 46.4713 169.278 44.85C170.165 43.2033 171.393 41.9367 172.964 41.05C174.56 40.1633 176.384 39.72 178.436 39.72C180.412 39.72 182.173 40.1507 183.718 41.012C185.263 41.8733 186.467 43.0893 187.328 44.66C188.189 46.2053 188.62 47.9913 188.62 50.018ZM184.098 48.65C184.073 47.054 183.503 45.7747 182.388 44.812C181.273 43.8493 179.893 43.368 178.246 43.368C176.751 43.368 175.472 43.8493 174.408 44.812C173.344 45.7493 172.711 47.0287 172.508 48.65H184.098ZM197.215 43.102C197.849 42.038 198.685 41.2147 199.723 40.632C200.787 40.024 202.041 39.72 203.485 39.72V44.204H202.383C200.686 44.204 199.394 44.6347 198.507 45.496C197.646 46.3573 197.215 47.852 197.215 49.98V61H192.883V40.062H197.215V43.102Z" fill="white"/>
<defs>
<linearGradient id="paint0_linear_254_16" x1="47.5" y1="23.75" x2="70.25" y2="53.25" gradientUnits="userSpaceOnUse">
<stop stop-color="#FFA90F"/>
<stop offset="1" stop-color="#FFA90F" stop-opacity="0"/>
</linearGradient>
<linearGradient id="paint1_linear_254_16" x1="47.5" y1="2.71201e-06" x2="93" y2="59" gradientUnits="userSpaceOnUse">
<stop stop-color="#FFA90F"/>
<stop offset="1" stop-color="#FFA90F" stop-opacity="0"/>
</linearGradient>
</defs>
</svg>
