<svg width="60" height="60" viewBox="0 0 60 60" fill="none" xmlns="http://www.w3.org/2000/svg">
<path d="M30 16V32.8" stroke="#FFA90F" stroke-width="2.5" stroke-linecap="round"/>
<path d="M30.007 43.9965C31.5534 43.9965 32.807 42.7429 32.807 41.1965C32.807 39.6501 31.5534 38.3965 30.007 38.3965C28.4606 38.3965 27.207 39.6501 27.207 41.1965C27.207 42.7429 28.4606 43.9965 30.007 43.9965Z" fill="#FFA90F"/>
<path d="M16 5.74643C20.2547 3.28496 25.0846 1.99246 30 2.00003C45.4644 2.00003 58 14.5356 58 30C58 45.4644 45.4644 58 30 58C14.5356 58 2 45.4644 2 30C2 24.9012 3.3636 20.116 5.7464 16" stroke="#FFA90F" stroke-width="2.5" stroke-linecap="round"/>
</svg>
