<svg width="17" height="45" viewBox="0 0 17 45" fill="none" xmlns="http://www.w3.org/2000/svg">
<path d="M10.8022 9.49617H15.3078C16.4405 9.49617 16.9943 8.13694 16.1888 7.35664L9.16609 0.359115C8.92569 0.128662 8.60554 0 8.27252 0C7.9395 0 7.61936 0.128662 7.37895 0.359115L0.381426 7.35664C-0.424044 8.13694 0.129718 9.49617 1.26241 9.49617H5.76801V34.7175H1.26241C0.129718 34.7175 -0.424044 36.0767 0.381426 36.857L7.40412 43.8545C7.90754 44.3328 8.68784 44.3328 9.19126 43.8545L16.214 36.857C17.0194 36.0767 16.4405 34.7175 15.333 34.7175H10.8022V9.49617Z" fill="#FFA90F"/>
</svg>
