<svg width="57" height="60" viewBox="0 0 57 60" fill="none" xmlns="http://www.w3.org/2000/svg">
<path d="M29.7774 4.04454e-07C28.8194 0.000318746 27.8709 0.188811 26.9859 0.554716C26.101 0.920621 25.297 1.45677 24.6198 2.13256C23.9427 2.80834 23.4056 3.61053 23.0393 4.49331C22.673 5.3761 22.4846 6.32219 22.4849 7.27758C22.4853 8.23296 22.6743 9.17893 23.0412 10.0615C23.4081 10.944 23.9457 11.7458 24.6233 12.4212C25.3009 13.0965 26.1052 13.6321 26.9904 13.9974C27.8756 14.3628 28.8243 14.5506 29.7822 14.5503C31.7169 14.5497 33.5722 13.7826 34.9398 12.4177C36.3073 11.0529 37.0753 9.20222 37.0746 7.27273C37.074 5.34324 36.3048 3.49303 34.9363 2.12913C33.5678 0.765228 31.7121 -0.000642516 29.7774 4.04454e-07ZM12.6086 8.33455C10.9973 8.33583 9.45229 8.97477 8.31291 10.1111C7.17353 11.2474 6.53286 12.7882 6.53157 14.3952C6.53157 17.7358 9.25894 20.4558 12.6086 20.4558C14.2203 20.4558 15.766 19.8172 16.9057 18.6806C18.0453 17.5441 18.6856 16.0025 18.6856 14.3952C18.6856 12.7878 18.0453 11.2462 16.9057 10.1097C15.766 8.97307 14.2203 8.33455 12.6086 8.33455ZM46.9461 11.9709C45.6068 11.9709 44.5153 13.0594 44.5153 14.3952C44.5153 15.7285 45.6068 16.8194 46.9461 16.8194C48.2831 16.8194 49.3769 15.7285 49.3769 14.3952C49.3769 13.0594 48.2831 11.9709 46.9461 11.9709ZM5.46931 26.0606C4.75091 26.0608 4.03958 26.202 3.37592 26.4764C2.71227 26.7507 2.10929 27.1527 1.60142 27.6594C1.09355 28.1661 0.690726 28.7677 0.415954 29.4297C0.141182 30.0916 -0.000159474 30.8011 1.35027e-07 31.5176C0.000159744 32.234 0.141817 32.9434 0.416884 33.6053C0.691952 34.2672 1.09504 34.8685 1.60314 35.375C2.11124 35.8815 2.71439 36.2833 3.37817 36.5573C4.04195 36.8313 4.75334 36.9723 5.47174 36.9721C6.92262 36.9718 8.31394 36.3967 9.33963 35.3733C10.3653 34.3499 10.9414 32.9621 10.9411 31.5152C10.9407 30.0682 10.3641 28.6806 9.33791 27.6577C8.31176 26.6348 6.92019 26.0603 5.46931 26.0606ZM54.0854 28.4848C53.6765 28.4682 53.2684 28.5341 52.8857 28.6786C52.503 28.8231 52.1534 29.0432 51.8581 29.3258C51.5628 29.6083 51.3277 29.9475 51.167 30.3228C51.0063 30.6982 50.9233 31.1021 50.923 31.5102C50.9227 31.9184 51.005 32.3224 51.1651 32.698C51.3252 33.0736 51.5597 33.4131 51.8546 33.6961C52.1495 33.9791 52.4986 34.1998 52.8811 34.3449C53.2637 34.49 53.6716 34.5566 54.0806 34.5406C54.8648 34.5099 55.6067 34.1778 56.1509 33.6138C56.6951 33.0499 56.9994 32.2978 57 31.5151C57.0006 30.7323 56.6976 29.9798 56.1543 29.4149C55.611 28.8501 54.8696 28.5168 54.0854 28.4848ZM12.6086 43.7891C9.92255 43.7891 7.74698 45.9564 7.74698 48.6376C7.74698 49.9235 8.25918 51.1567 9.17091 52.066C10.0826 52.9752 11.3192 53.4861 12.6086 53.4861C13.898 53.4861 15.1345 52.9752 16.0463 52.066C16.958 51.1567 17.4702 49.9235 17.4702 48.6376C17.4702 45.9564 15.2971 43.7891 12.6086 43.7891ZM46.9461 45.0012C46.4673 45.0012 45.9932 45.0953 45.5508 45.278C45.1084 45.4608 44.7065 45.7286 44.3679 46.0663C44.0293 46.4039 43.7607 46.8048 43.5775 47.246C43.3942 47.6872 43.2999 48.16 43.2999 48.6376C43.2999 49.1151 43.3942 49.588 43.5775 50.0292C43.7607 50.4703 44.0293 50.8712 44.3679 51.2089C44.7065 51.5465 45.1084 51.8144 45.5508 51.9971C45.9932 52.1799 46.4673 52.2739 46.9461 52.2739C47.9132 52.2739 48.8406 51.8908 49.5244 51.2089C50.2082 50.5269 50.5923 49.602 50.5923 48.6376C50.5923 47.6732 50.2082 46.7482 49.5244 46.0663C48.8406 45.3843 47.9132 45.0012 46.9461 45.0012ZM29.7774 51.5152C27.4316 51.5152 25.5235 53.4182 25.5235 55.7576C25.5235 58.097 27.4316 60 29.7774 60C32.1231 60 34.0313 58.097 34.0313 55.7576C34.0313 53.4182 32.1231 51.5152 29.7774 51.5152Z" fill="#FFFEF5"/>
</svg>
