<svg width="28" height="28" viewBox="0 0 28 28" fill="none" xmlns="http://www.w3.org/2000/svg">
<path d="M27.155 1.48502L15.6263 26.6385C15.5299 26.8492 15.3663 27.022 15.1612 27.1299C14.9561 27.2377 14.721 27.2746 14.4927 27.2346C14.2645 27.1947 14.0559 27.0802 13.8996 26.9091C13.7433 26.738 13.6481 26.52 13.6289 26.289L12.6542 14.5961L0.961298 13.6214C0.730359 13.6022 0.512291 13.507 0.341198 13.3507C0.170104 13.1944 0.0556336 12.9858 0.015689 12.7576C-0.0242556 12.5293 0.0125782 12.2942 0.12043 12.0891C0.228281 11.884 0.401069 11.7205 0.611769 11.624L25.7653 0.0952893C25.9597 0.00617396 26.1768 -0.0213093 26.3873 0.0165303C26.5979 0.0543699 26.7918 0.15572 26.943 0.306971C27.0943 0.458222 27.1956 0.652132 27.2335 0.86266C27.2713 1.07319 27.2438 1.29025 27.1547 1.48471L27.155 1.48502Z" fill="#E31D3B"/>
</svg>
