<svg width="157" height="66" viewBox="0 0 157 66" fill="none" xmlns="http://www.w3.org/2000/svg">
<path d="M115.769 2L125 11.2308M125 11.2308L134.231 2M125 11.2308V52.7692M95 41.2308L104.231 32M104.231 32L95 22.7692M104.231 32H145.769M134.231 62L125 52.7692M125 52.7692L115.769 62M155 22.7692L145.769 32M145.769 32L155 41.2308M108.846 15.8462L115.769 22.7692M115.769 41.2308L108.846 48.1538M141.154 15.8462L134.231 22.7692M134.231 41.2308L141.154 48.1538" stroke="url(#paint0_linear_254_13)" stroke-width="3" stroke-linecap="round" stroke-linejoin="round"/>
<path d="M37.24 24.59L29.412 51H24.51L18.962 31.012L13.072 51L8.208 51.038L0.722 24.59H5.32L10.792 46.098L16.72 24.59H21.584L27.094 45.984L32.604 24.59H37.24ZM43.0169 27.288C42.2316 27.288 41.5729 27.022 41.0409 26.49C40.5089 25.958 40.2429 25.2993 40.2429 24.514C40.2429 23.7287 40.5089 23.07 41.0409 22.538C41.5729 22.006 42.2316 21.74 43.0169 21.74C43.7769 21.74 44.4229 22.006 44.9549 22.538C45.4869 23.07 45.7529 23.7287 45.7529 24.514C45.7529 25.2993 45.4869 25.958 44.9549 26.49C44.4229 27.022 43.7769 27.288 43.0169 27.288ZM45.1449 30.062V51H40.8129V30.062H45.1449ZM61.3964 29.72C63.0431 29.72 64.5124 30.062 65.8044 30.746C67.1218 31.43 68.1478 32.4433 68.8824 33.786C69.6171 35.1287 69.9844 36.75 69.9844 38.65V51H65.6904V39.296C65.6904 37.4213 65.2218 35.99 64.2844 35.002C63.3471 33.9887 62.0678 33.482 60.4464 33.482C58.8251 33.482 57.5331 33.9887 56.5704 35.002C55.6331 35.99 55.1644 37.4213 55.1644 39.296V51H50.8324V30.062H55.1644V32.456C55.8738 31.5947 56.7731 30.9233 57.8624 30.442C58.9771 29.9607 60.1551 29.72 61.3964 29.72ZM80.5642 33.596V45.186C80.5642 45.9713 80.7415 46.5413 81.0962 46.896C81.4762 47.2253 82.1095 47.39 82.9962 47.39H85.6562V51H82.2362C80.2855 51 78.7908 50.544 77.7522 49.632C76.7135 48.72 76.1942 47.238 76.1942 45.186V33.596H73.7242V30.062H76.1942V24.856H80.5642V30.062H85.6562V33.596H80.5642ZM108.839 40.018C108.839 40.8033 108.788 41.5127 108.687 42.146H92.6888C92.8155 43.818 93.4362 45.1607 94.5508 46.174C95.6655 47.1873 97.0335 47.694 98.6548 47.694C100.985 47.694 102.632 46.7187 103.595 44.768H108.269C107.635 46.6933 106.483 48.2767 104.811 49.518C103.164 50.734 101.112 51.342 98.6548 51.342C96.6535 51.342 94.8548 50.8987 93.2588 50.012C91.6882 49.1 90.4468 47.8333 89.5348 46.212C88.6482 44.5653 88.2048 42.6653 88.2048 40.512C88.2048 38.3587 88.6355 36.4713 89.4968 34.85C90.3835 33.2033 91.6122 31.9367 93.1828 31.05C94.7788 30.1633 96.6028 29.72 98.6548 29.72C100.631 29.72 102.391 30.1507 103.937 31.012C105.482 31.8733 106.685 33.0893 107.547 34.66C108.408 36.2053 108.839 37.9913 108.839 40.018ZM104.317 38.65C104.291 37.054 103.721 35.7747 102.607 34.812C101.492 33.8493 100.111 33.368 98.4648 33.368C96.9702 33.368 95.6908 33.8493 94.6268 34.812C93.5628 35.7493 92.9295 37.0287 92.7268 38.65H104.317ZM117.434 33.102C118.067 32.038 118.903 31.2147 119.942 30.632C121.006 30.024 122.26 29.72 123.704 29.72V34.204H122.602C120.905 34.204 119.613 34.6347 118.726 35.496C117.865 36.3573 117.434 37.852 117.434 39.98V51H113.102V30.062H117.434V33.102Z" fill="white"/>
<defs>
<linearGradient id="paint0_linear_254_13" x1="155" y1="2" x2="95" y2="49" gradientUnits="userSpaceOnUse">
<stop stop-color="#B5DCFF"/>
<stop offset="1" stop-color="#B5DCFF" stop-opacity="0"/>
</linearGradient>
</defs>
</svg>
