<svg width="16" height="14" viewBox="0 0 16 14" fill="none" xmlns="http://www.w3.org/2000/svg">
<path d="M16 1.73523C15.405 1.99623 14.771 2.16923 14.11 2.25323C14.79 1.84723 15.309 1.20923 15.553 0.440228C14.919 0.818228 14.219 1.08523 13.473 1.23423C12.871 0.593228 12.013 0.196228 11.077 0.196228C9.261 0.196228 7.799 1.67023 7.799 3.47723C7.799 3.73723 7.821 3.98723 7.875 4.22523C5.148 4.09223 2.735 2.78523 1.114 0.794228C0.831 1.28523 0.665 1.84723 0.665 2.45223C0.665 3.58823 1.25 4.59523 2.122 5.17823C1.595 5.16823 1.078 5.01523 0.64 4.77423C0.64 4.78423 0.64 4.79723 0.64 4.81023C0.64 6.40423 1.777 7.72823 3.268 8.03323C3.001 8.10623 2.71 8.14123 2.408 8.14123C2.198 8.14123 1.986 8.12923 1.787 8.08523C2.212 9.38423 3.418 10.3392 4.852 10.3702C3.736 11.2432 2.319 11.7692 0.785 11.7692C0.516 11.7692 0.258 11.7572 0 11.7242C1.453 12.6612 3.175 13.1962 5.032 13.1962C11.068 13.1962 14.368 8.19623 14.368 3.86223C14.368 3.71723 14.363 3.57723 14.356 3.43823C15.007 2.97623 15.554 2.39923 16 1.73523Z" fill="#FFA90F"/>
</svg>
