<svg width="99" height="100" viewBox="0 0 99 100" fill="none" xmlns="http://www.w3.org/2000/svg">
<g filter="url(#filter0_d_260_399)">
<path fill-rule="evenodd" clip-rule="evenodd" d="M49.7334 81C68.5111 81 83.7334 65.7777 83.7334 47C83.7334 28.2223 68.5111 13 49.7334 13C30.9557 13 15.7334 28.2223 15.7334 47C15.7334 65.7777 30.9557 81 49.7334 81Z" fill="#FFA90F"/>
</g>
<g clip-path="url(#clip0_260_399)">
<path d="M59.0365 34.1558H41.9421C39.9894 34.1558 38.4004 35.7448 38.4004 37.6974V54.7919C38.4004 56.745 39.9894 58.3335 41.9421 58.3335H59.0365C60.9896 58.3335 62.5782 56.745 62.5782 54.7919V37.6974C62.5782 35.7448 60.9896 34.1558 59.0365 34.1558ZM61.1615 54.7919C61.1615 55.9635 60.2081 56.9169 59.0365 56.9169H41.9421C40.7705 56.9169 39.8171 55.9635 39.8171 54.7919V37.6974C39.8171 36.5258 40.7705 35.5724 41.9421 35.5724H59.0365C60.2081 35.5724 61.1615 36.5258 61.1615 37.6974V54.7919Z" fill="white"/>
<path d="M58.2809 37.0361C57.4999 37.0361 56.8643 37.6717 56.8643 38.4528C56.8643 39.2339 57.4999 39.8695 58.2809 39.8695C59.062 39.8695 59.6976 39.2339 59.6976 38.4528C59.6976 37.6717 59.062 37.0361 58.2809 37.0361Z" fill="white"/>
<path d="M50.4893 39.8696C46.974 39.8696 44.1143 42.7294 44.1143 46.2446C44.1143 49.7599 46.974 52.6196 50.4893 52.6196C54.0045 52.6196 56.8643 49.7599 56.8643 46.2446C56.8643 42.7294 54.0045 39.8696 50.4893 39.8696ZM50.4893 51.203C47.7551 51.203 45.5309 48.9788 45.5309 46.2446C45.5309 43.5105 47.7551 41.2863 50.4893 41.2863C53.2234 41.2863 55.4476 43.5105 55.4476 46.2446C55.4476 48.9788 53.2234 51.203 50.4893 51.203Z" fill="white"/>
</g>
<defs>
<filter id="filter0_d_260_399" x="0.622287" y="0.911111" width="98.2222" height="98.2222" filterUnits="userSpaceOnUse" color-interpolation-filters="sRGB">
<feFlood flood-opacity="0" result="BackgroundImageFix"/>
<feColorMatrix in="SourceAlpha" type="matrix" values="0 0 0 0 0 0 0 0 0 0 0 0 0 0 0 0 0 0 127 0" result="hardAlpha"/>
<feOffset dy="3.02222"/>
<feGaussianBlur stdDeviation="7.55556"/>
<feColorMatrix type="matrix" values="0 0 0 0 0 0 0 0 0 0 0 0 0 0 0 0 0 0 0.1 0"/>
<feBlend mode="normal" in2="BackgroundImageFix" result="effect1_dropShadow_260_399"/>
<feBlend mode="normal" in="SourceGraphic" in2="effect1_dropShadow_260_399" result="shape"/>
</filter>
<clipPath id="clip0_260_399">
<rect width="24.1778" height="24.1778" fill="white" transform="translate(38.4004 34.1558)"/>
</clipPath>
</defs>
</svg>
