<svg width="93" height="94" viewBox="0 0 93 94" fill="none" xmlns="http://www.w3.org/2000/svg">
<g filter="url(#filter0_d_260_393)">
<path fill-rule="evenodd" clip-rule="evenodd" d="M46.4885 74.978C63.5971 74.978 77.4663 61.1088 77.4663 44.0002C77.4663 26.8917 63.5971 13.0225 46.4885 13.0225C29.38 13.0225 15.5107 26.8917 15.5107 44.0002C15.5107 61.1088 29.38 74.978 46.4885 74.978Z" fill="#FFA90F"/>
</g>
<path d="M57.8213 36.5033C56.9222 36.8977 55.9642 37.1592 54.9653 37.2861C55.9929 36.6726 56.7772 35.7085 57.1459 34.5464C56.1878 35.1176 55.13 35.5211 54.0028 35.7463C53.0931 34.7776 51.7965 34.1777 50.3821 34.1777C47.638 34.1777 45.4287 36.4051 45.4287 39.1357C45.4287 39.5286 45.462 39.9064 45.5436 40.266C41.4228 40.065 37.7764 38.09 35.3269 35.0814C34.8993 35.8233 34.6484 36.6726 34.6484 37.5868C34.6484 39.3034 35.5324 40.8251 36.8501 41.7061C36.0538 41.691 35.2725 41.4598 34.6107 41.0956C34.6107 41.1107 34.6107 41.1304 34.6107 41.15C34.6107 43.5587 36.3288 45.5594 38.5819 46.0203C38.1784 46.1306 37.7387 46.1835 37.2823 46.1835C36.965 46.1835 36.6446 46.1654 36.3439 46.0989C36.9861 48.0618 38.8085 49.5049 40.9755 49.5518C39.2891 50.871 37.1478 51.6658 34.8298 51.6658C34.4233 51.6658 34.0334 51.6477 33.6436 51.5978C35.8392 53.0137 38.4413 53.8222 41.2475 53.8222C50.3685 53.8222 55.3552 46.2666 55.3552 39.7175C55.3552 39.4984 55.3476 39.2868 55.3371 39.0768C56.3208 38.3786 57.1474 37.5067 57.8213 36.5033Z" fill="#FFFEF5"/>
<defs>
<filter id="filter0_d_260_393" x="0.399631" y="0.933572" width="92.1773" height="92.1778" filterUnits="userSpaceOnUse" color-interpolation-filters="sRGB">
<feFlood flood-opacity="0" result="BackgroundImageFix"/>
<feColorMatrix in="SourceAlpha" type="matrix" values="0 0 0 0 0 0 0 0 0 0 0 0 0 0 0 0 0 0 127 0" result="hardAlpha"/>
<feOffset dy="3.02222"/>
<feGaussianBlur stdDeviation="7.55556"/>
<feColorMatrix type="matrix" values="0 0 0 0 0 0 0 0 0 0 0 0 0 0 0 0 0 0 0.1 0"/>
<feBlend mode="normal" in2="BackgroundImageFix" result="effect1_dropShadow_260_393"/>
<feBlend mode="normal" in="SourceGraphic" in2="effect1_dropShadow_260_393" result="shape"/>
</filter>
</defs>
</svg>
