<svg width="152" height="75" viewBox="0 0 152 75" fill="none" xmlns="http://www.w3.org/2000/svg">
<path d="M25.762 17.622H17.622L14.366 44H7.238L10.45 17.622H2.266L2.97 11.946H26.51L25.762 17.622ZM38.0548 27.082C39.0815 27.082 39.9542 26.928 40.6728 26.62C41.3915 26.2973 41.9708 25.872 42.4108 25.344C42.8655 24.816 43.1882 24.2 43.3788 23.496C43.5842 22.792 43.6868 22.0513 43.6868 21.274C43.6868 20.6727 43.5988 20.13 43.4228 19.646C43.2468 19.1473 42.9682 18.7293 42.5868 18.392C42.2202 18.04 41.7508 17.7687 41.1788 17.578C40.6215 17.3873 39.9615 17.292 39.1988 17.292H36.6468L35.4368 27.082H38.0548ZM39.8588 11.946C41.8242 11.946 43.4962 12.1587 44.8748 12.584C46.2682 12.9947 47.4048 13.5667 48.2848 14.3C49.1648 15.0333 49.8028 15.906 50.1988 16.918C50.6095 17.9153 50.8148 19.0007 50.8148 20.174C50.8148 21.3473 50.6535 22.4693 50.3308 23.54C50.0228 24.596 49.5682 25.5713 48.9668 26.466C48.3655 27.346 47.6322 28.1307 46.7668 28.82C45.9015 29.4947 44.9115 30.052 43.7968 30.492C44.2368 30.7413 44.6402 31.0493 45.0068 31.416C45.3735 31.768 45.6815 32.2007 45.9308 32.714L50.5948 44H44.1268C43.5255 44 43.0195 43.8827 42.6088 43.648C42.2128 43.3987 41.9268 43.0613 41.7508 42.636L38.2748 33.154C38.0988 32.758 37.8788 32.472 37.6148 32.296C37.3508 32.12 36.9548 32.032 36.4268 32.032H34.8208L33.3468 44H26.2188L30.1348 11.946H39.8588ZM70.5162 31.79L68.9542 22.638C68.8369 22.066 68.7049 21.3913 68.5582 20.614C68.4262 19.822 68.2942 18.9713 68.1622 18.062C67.8102 18.986 67.4582 19.844 67.1062 20.636C66.7689 21.4133 66.4755 22.0953 66.2262 22.682L62.4642 31.79H70.5162ZM80.0422 44H74.4982C73.8822 44 73.3982 43.8607 73.0462 43.582C72.7089 43.2887 72.4742 42.9073 72.3422 42.438L71.3522 36.674H60.4622L58.0862 42.438C57.8809 42.834 57.5509 43.1933 57.0962 43.516C56.6562 43.8387 56.1502 44 55.5782 44H49.9462L65.2582 11.946H72.6062L80.0422 44ZM110.557 11.946L94.8049 44H88.2929L80.4169 11.946H86.1809C86.7969 11.946 87.2882 12.0927 87.6549 12.386C88.0215 12.6793 88.2489 13.0533 88.3369 13.508L91.6809 31.174C91.8715 31.878 92.0475 32.6627 92.2089 33.528C92.3702 34.3787 92.5095 35.266 92.6269 36.19C92.9495 35.266 93.2795 34.3787 93.6169 33.528C93.9689 32.6627 94.3355 31.878 94.7169 31.174L102.197 13.508C102.285 13.3173 102.41 13.1267 102.571 12.936C102.747 12.7453 102.945 12.5767 103.165 12.43C103.385 12.2833 103.627 12.166 103.891 12.078C104.17 11.99 104.456 11.946 104.749 11.946H110.557ZM119.643 17.468L118.697 25.212H127.761L127.057 30.536H118.037L117.047 38.478H128.993L128.289 44H109.149L113.109 11.946H132.205L131.501 17.468H119.643ZM151.351 38.28L150.647 44H132.695L136.655 11.946H143.827L140.571 38.28H151.351Z" fill="#E31D3B"/>
<line x1="9" y1="63" x2="135" y2="63" stroke="#E31D3B" stroke-width="2" stroke-linecap="round"/>
<line x1="40" y1="74" x2="102" y2="74" stroke="#E31D3B" stroke-width="2" stroke-linecap="round"/>
</svg>
