<svg width="59" height="59" viewBox="0 0 59 59" fill="none" xmlns="http://www.w3.org/2000/svg">
<path d="M29.5 12.9063C29.5 12.4173 29.3057 11.9483 28.96 11.6025C28.6142 11.2568 28.1452 11.0625 27.6563 11.0625C27.1673 11.0625 26.6983 11.2568 26.3525 11.6025C26.0068 11.9483 25.8125 12.4173 25.8125 12.9063V33.1875C25.8126 33.5125 25.8986 33.8317 26.0618 34.1127C26.225 34.3938 26.4596 34.6267 26.7417 34.7879L39.648 42.1629C40.0715 42.3918 40.5678 42.4459 41.0308 42.3138C41.4937 42.1816 41.8866 41.8736 42.1254 41.4556C42.3643 41.0376 42.4302 40.5428 42.309 40.0768C42.1879 39.6109 41.8892 39.2108 41.477 38.9621L29.5 32.1181V12.9063Z" fill="#FFA90F"/>
<path d="M29.5 59C37.3239 59 44.8273 55.892 50.3596 50.3596C55.892 44.8273 59 37.3239 59 29.5C59 21.6761 55.892 14.1727 50.3596 8.64035C44.8273 3.10803 37.3239 0 29.5 0C21.6761 0 14.1727 3.10803 8.64035 8.64035C3.10803 14.1727 0 21.6761 0 29.5C0 37.3239 3.10803 44.8273 8.64035 50.3596C14.1727 55.892 21.6761 59 29.5 59ZM55.3125 29.5C55.3125 36.3459 52.593 42.9114 47.7522 47.7522C42.9114 52.593 36.3459 55.3125 29.5 55.3125C22.6541 55.3125 16.0886 52.593 11.2478 47.7522C6.40702 42.9114 3.6875 36.3459 3.6875 29.5C3.6875 22.6541 6.40702 16.0886 11.2478 11.2478C16.0886 6.40702 22.6541 3.6875 29.5 3.6875C36.3459 3.6875 42.9114 6.40702 47.7522 11.2478C52.593 16.0886 55.3125 22.6541 55.3125 29.5Z" fill="#FFA90F"/>
</svg>
