<svg width="16" height="17" viewBox="0 0 16 17" fill="none" xmlns="http://www.w3.org/2000/svg">
<path d="M8.82241 0.196655C9.72236 0.199055 10.1791 0.203855 10.5735 0.215054L10.7287 0.220654C10.9079 0.227054 11.0847 0.235053 11.2983 0.244653C12.1494 0.284651 12.7302 0.419044 13.2398 0.616634C13.7678 0.819824 14.2125 1.09501 14.6573 1.53899C15.0641 1.93888 15.3788 2.42261 15.5797 2.95651C15.7773 3.46609 15.9116 4.04686 15.9516 4.89881C15.9612 5.1116 15.9692 5.2884 15.9756 5.46839L15.9804 5.62358C15.9924 6.01716 15.9972 6.47393 15.9988 7.37389L15.9996 7.97066V9.0186C16.0016 9.6021 15.9955 10.1856 15.9812 10.7689L15.9764 10.9241C15.97 11.1041 15.962 11.2809 15.9524 11.4937C15.9124 12.3456 15.7765 12.9256 15.5797 13.436C15.3794 13.9702 15.0646 14.454 14.6573 14.8535C14.2573 15.2601 13.7736 15.5749 13.2398 15.7759C12.7302 15.9734 12.1494 16.1078 11.2983 16.1478C11.1085 16.1568 10.9186 16.1648 10.7287 16.1718L10.5735 16.1766C10.1791 16.1878 9.72236 16.1934 8.82241 16.195L8.22564 16.1958H7.17849C6.59473 16.1979 6.01097 16.1917 5.42738 16.1774L5.27219 16.1726C5.08229 16.1654 4.89243 16.1572 4.70262 16.1478C3.85146 16.1078 3.27069 15.9734 2.76032 15.7759C2.22648 15.5754 1.74295 15.2606 1.34359 14.8535C0.93645 14.4538 0.621409 13.97 0.42044 13.436C0.22285 12.9264 0.088457 12.3456 0.0484591 11.4937C0.0395466 11.3039 0.0315469 11.114 0.0244603 10.9241L0.0204606 10.7689C0.00571902 10.1856 -0.000948019 9.60211 0.000461577 9.0186V7.37389C-0.00177108 6.7904 0.00409591 6.20691 0.0180607 5.62358L0.0236604 5.46839C0.0300601 5.2884 0.0380597 5.1116 0.0476592 4.89881C0.0876571 4.04686 0.22205 3.46689 0.41964 2.95651C0.620521 2.42207 0.93619 1.93819 1.34439 1.53899C1.74365 1.13219 2.22686 0.817413 2.76032 0.616634C3.27069 0.419044 3.85066 0.284651 4.70262 0.244653C4.91541 0.235053 5.093 0.227054 5.27219 0.220654L5.42738 0.215854C6.01071 0.201641 6.5942 0.195508 7.17769 0.197455L8.82241 0.196655ZM8.00005 4.19645C6.93924 4.19645 5.92188 4.61786 5.17177 5.36796C4.42166 6.11807 4.00026 7.13543 4.00026 8.19625C4.00026 9.25706 4.42166 10.2744 5.17177 11.0245C5.92188 11.7746 6.93924 12.196 8.00005 12.196C9.06086 12.196 10.0782 11.7746 10.8283 11.0245C11.5784 10.2744 11.9998 9.25706 11.9998 8.19625C11.9998 7.13543 11.5784 6.11807 10.8283 5.36796C10.0782 4.61786 9.06086 4.19645 8.00005 4.19645ZM8.00005 5.79637C8.31521 5.79632 8.62729 5.85834 8.91848 5.9789C9.20966 6.09945 9.47425 6.27618 9.69714 6.49899C9.92002 6.72181 10.0968 6.98634 10.2175 7.27748C10.3381 7.56863 10.4003 7.88069 10.4003 8.19585C10.4004 8.511 10.3384 8.82308 10.2178 9.11427C10.0972 9.40546 9.92052 9.67005 9.6977 9.89293C9.47489 10.1158 9.21036 10.2926 8.91921 10.4133C8.62807 10.5339 8.31601 10.5961 8.00085 10.5961C7.36437 10.5961 6.75395 10.3433 6.30388 9.89322C5.85382 9.44315 5.60098 8.83273 5.60098 8.19625C5.60098 7.55976 5.85382 6.94934 6.30388 6.49928C6.75395 6.04921 7.36437 5.79637 8.00085 5.79637M12.2006 2.99651C11.9354 2.99651 11.6811 3.10186 11.4936 3.28939C11.306 3.47692 11.2007 3.73126 11.2007 3.99646C11.2007 4.26166 11.306 4.51601 11.4936 4.70353C11.6811 4.89106 11.9354 4.99641 12.2006 4.99641C12.4658 4.99641 12.7202 4.89106 12.9077 4.70353C13.0952 4.51601 13.2006 4.26166 13.2006 3.99646C13.2006 3.73126 13.0952 3.47692 12.9077 3.28939C12.7202 3.10186 12.4658 2.99651 12.2006 2.99651Z" fill="#FFA90F"/>
</svg>
